HIERARCHY
ROOT Hips
{
	OFFSET 0.000000 0.000000 0.000000
	CHANNELS 6 Xposition Yposition Zposition Zrotation Yrotation Xrotation 
	JOINT LHipJoint
	{
		OFFSET 0.000000 0.000000 0.000000
		CHANNELS 3 Zrotation Yrotation Xrotation
		JOINT LeftUpLeg
		{
			OFFSET 1.363060 -1.794630 0.839290
			CHANNELS 3 Zrotation Yrotation Xrotation
			JOINT LeftLeg
			{
				OFFSET 2.448110 -6.726130 0.000000
				CHANNELS 3 Zrotation Yrotation Xrotation
				JOINT LeftFoot
				{
					OFFSET 2.562200 -7.039590 0.000000
					CHANNELS 3 Zrotation Yrotation Xrotation
					JOINT LeftToeBase
					{
						OFFSET 0.157640 -0.433110 2.322550
						CHANNELS 3 Zrotation Yrotation Xrotation
						End Site
						{
							OFFSET 0.000000 0.000000 0.000000
						}
					}
				}
			}
		}
	}
	JOINT RHipJoint
	{
		OFFSET 0.000000 0.000000 0.000000
		CHANNELS 3 Zrotation Yrotation Xrotation
		JOINT RightUpLeg
		{
			OFFSET -1.305520 -1.794630 0.839290
			CHANNELS 3 Zrotation Yrotation Xrotation
			JOINT RightLeg
			{
				OFFSET -2.542530 -6.985550 0.000000
				CHANNELS 3 Zrotation Yrotation Xrotation
				JOINT RightFoot
				{
					OFFSET -2.568260 -7.056230 0.000000
					CHANNELS 3 Zrotation Yrotation Xrotation
					JOINT RightToeBase
					{
						OFFSET -0.164730 -0.452590 2.363150
						CHANNELS 3 Zrotation Yrotation Xrotation
						End Site
						{
							OFFSET 0.000000 0.000000 0.000000
						}
					}
				}
			}
		}
	}
	JOINT LowerBack
	{
		OFFSET 0.000000 0.000000 0.000000
		CHANNELS 3 Zrotation Yrotation Xrotation
		JOINT Spine
		{
			OFFSET 0.028270 2.035590 -0.193380
			CHANNELS 3 Zrotation Yrotation Xrotation
			JOINT Spine1
			{
				OFFSET 0.056720 2.048850 -0.042750
				CHANNELS 3 Zrotation Yrotation Xrotation
				JOINT Neck
				{
					OFFSET 0.000000 0.000000 0.000000
					CHANNELS 3 Zrotation Yrotation Xrotation
					JOINT Neck1
					{
						OFFSET -0.054170 1.746240 0.172020
						CHANNELS 3 Zrotation Yrotation Xrotation
						JOINT Head
						{
							OFFSET 0.104070 1.761360 -0.123970
							CHANNELS 3 Zrotation Yrotation Xrotation
							End Site
							{
								OFFSET 0.000000 0.000000 0.000000
							}
						}
					}
				}
				JOINT LeftShoulder
				{
					OFFSET 0.000000 0.000000 0.000000
					CHANNELS 3 Zrotation Yrotation Xrotation
					JOINT LeftArm
					{
						OFFSET 3.362410 1.200890 -0.311210
						CHANNELS 3 Zrotation Yrotation Xrotation
						JOINT LeftForeArm
						{
							OFFSET 4.983000 -0.000000 -0.000000
							CHANNELS 3 Zrotation Yrotation Xrotation
							JOINT LeftHand
							{
								OFFSET 3.483560 -0.000000 -0.000000
								CHANNELS 3 Zrotation Yrotation Xrotation
								JOINT LeftFingerBase
								{
									OFFSET 0.000000 0.000000 0.000000
									CHANNELS 3 Zrotation Yrotation Xrotation
									JOINT LeftHandIndex1
									{
										OFFSET 0.715260 -0.000000 -0.000000
										CHANNELS 3 Zrotation Yrotation Xrotation
										End Site
										{
											OFFSET 0.000000 0.000000 0.000000
										}
									}
								}
								JOINT LThumb
								{
									OFFSET 0.000000 0.000000 0.000000
									CHANNELS 3 Zrotation Yrotation Xrotation
									End Site
									{
										OFFSET 0.000000 0.000000 0.000000
									}
								}
							}
						}
					}
				}
				JOINT RightShoulder
				{
					OFFSET 0.000000 0.000000 0.000000
					CHANNELS 3 Zrotation Yrotation Xrotation
					JOINT RightArm
					{
						OFFSET -3.136600 1.374050 -0.404650
						CHANNELS 3 Zrotation Yrotation Xrotation
						JOINT RightForeArm
						{
							OFFSET -5.241900 -0.000000 -0.000000
							CHANNELS 3 Zrotation Yrotation Xrotation
							JOINT RightHand
							{
								OFFSET -3.444170 -0.000000 -0.000000
								CHANNELS 3 Zrotation Yrotation Xrotation
								JOINT RightFingerBase
								{
									OFFSET 0.000000 0.000000 0.000000
									CHANNELS 3 Zrotation Yrotation Xrotation
									JOINT RightHandIndex1
									{
										OFFSET -0.622530 -0.000000 -0.000000
										CHANNELS 3 Zrotation Yrotation Xrotation
										End Site
										{
											OFFSET 0.000000 0.000000 0.000000
										}
									}
								}
								JOINT RThumb
								{
									OFFSET 0.000000 0.000000 0.000000
									CHANNELS 3 Zrotation Yrotation Xrotation
									End Site
									{
										OFFSET 0.000000 0.000000 0.000000
									}
								}
							}
						}
					}
				}
			}
		}
	}
}
MOTION
Frames: 11
Frame Time: 0.008333
-2.740425 17.863850 0.403201 0.018591 -0.351626 7.821109 -0.748265 20.489074 -1.457384 -17.644736 1.795736 -10.684435 0.436151 -0.276516 20.628666 28.525680 -12.898624 -4.096712 -5.773641 1.923411 -10.086124 -0.185710 -19.652303 1.338926 20.447994 3.528518 -9.118346 -3.194136 0.175466 17.508420 -26.192900 7.998632 -10.527112 7.508348 -4.818730 -10.844966 1.136484 -2.909282 7.035640 -8.665133 -3.004288 13.362921 6.659352 8.936592 -32.439865 -1.892754 -2.162160 -14.141319 3.346960 -2.527987 11.130485 -2.217600 -0.621189 -7.915968 20.672080 40.876367 -5.825619 -44.221368 -28.050355 22.647656 4.161930 -14.958532 13.955371 0.006799 1.173622 4.050526 -0.932752 8.995345 -0.000000 0.000000 0.000000 0.000000 0.000000 0.000000 0.000000 -10.478460 -35.462120 -7.917447 24.536629 21.817393 25.151766 -5.777937 19.107111 3.233113 -2.089552 -10.356307 1.595815 -1.521807 -11.709043 -0.000000 0.000000 0.000000 0.000000 0.000000 0.000000 0.000000 
-2.746830 17.861000 0.410681 0.002226 -0.303178 7.824460 -0.754847 20.485296 -1.447812 -17.593671 1.733902 -10.756758 0.457020 -0.215714 20.783830 28.515823 -12.861885 -4.195864 -5.793338 1.913529 -10.163277 -0.168132 -19.668608 1.299763 20.477523 3.494016 -9.099141 -3.226599 0.131696 17.606338 -26.187852 8.016262 -10.637126 7.516219 -4.820327 -10.860356 1.115746 -2.895378 7.084871 -8.636874 -2.990623 13.366955 6.644708 8.929985 -32.443610 -1.892702 -2.150321 -14.165516 3.330984 -2.511021 11.211636 -2.217074 -0.601936 -7.875017 20.625557 40.876988 -5.822679 -44.181493 -28.038104 22.628841 4.200143 -15.267348 13.921025 0.044413 1.063213 4.067421 -0.900542 8.971609 -0.000000 0.000000 0.000000 0.000000 0.000000 0.000000 0.000000 -10.450453 -35.470426 -7.905385 24.508505 21.733689 25.103790 -5.793130 19.247316 3.221789 -2.118490 -10.312655 1.606140 -1.551124 -11.701711 -0.000000 0.000000 0.000000 0.000000 0.000000 0.000000 0.000000 
-2.753625 17.857850 0.418853 -0.016019 -0.247810 7.823062 -0.763792 20.487962 -1.436919 -17.540269 1.669129 -10.837790 0.482565 -0.144384 20.957402 28.524025 -12.811466 -4.297756 -5.802377 1.901994 -10.224532 -0.152024 -19.681869 1.261149 20.511224 3.453844 -9.064281 -3.261575 0.085672 17.692758 -26.186671 8.023557 -10.754966 7.527221 -4.821066 -10.889455 1.096488 -2.880756 7.127672 -8.598110 -2.975530 13.391132 6.627970 8.911996 -32.457667 -1.893419 -2.141923 -14.188488 3.311425 -2.495435 11.312556 -2.216771 -0.580695 -7.823014 20.566592 40.888797 -5.812758 -44.129671 -28.020585 22.639036 4.231654 -15.596880 13.912041 0.051183 1.023084 4.081935 -0.900798 8.959637 -0.000000 0.000000 0.000000 0.000000 0.000000 0.000000 0.000000 -10.414335 -35.494374 -7.904655 24.475008 21.681683 25.082119 -5.791390 19.405629 3.207903 -2.147590 -10.256873 1.614170 -1.579501 -11.692040 -0.000000 0.000000 0.000000 0.000000 0.000000 0.000000 0.000000 
-2.760105 17.854400 0.427236 -0.027387 -0.194737 7.819897 -0.772261 20.493417 -1.426703 -17.498318 1.591846 -10.924794 0.516388 -0.073832 21.158650 28.524209 -12.764500 -4.393888 -5.821042 1.894287 -10.301651 -0.135104 -19.690710 1.225926 20.531458 3.416271 -9.035403 -3.293626 0.034602 17.783927 -26.175217 8.031027 -10.889355 7.537803 -4.820407 -10.917328 1.082110 -2.873123 7.166573 -8.583754 -2.966206 13.425484 6.620093 8.909666 -32.474546 -1.903051 -2.095775 -14.211069 3.311131 -2.445643 11.425777 -2.208953 -0.557294 -7.762705 20.522658 40.879252 -5.804227 -44.096269 -27.961818 22.596688 4.265543 -15.979120 13.843080 0.083990 0.988967 4.078153 -0.871718 8.944093 -0.000000 0.000000 0.000000 0.000000 0.000000 0.000000 0.000000 -10.373285 -35.523499 -7.912401 24.454298 21.637592 25.055418 -5.803897 19.561012 3.206372 -2.189608 -10.204269 1.636701 -1.619577 -11.681529 -0.000000 0.000000 0.000000 0.000000 0.000000 0.000000 0.000000 
-2.767050 17.850650 0.436269 -0.039419 -0.135769 7.818669 -0.782738 20.496797 -1.422652 -17.462118 1.510233 -11.011651 0.561223 0.006918 21.367702 28.549938 -12.692336 -4.492045 -5.831809 1.882605 -10.376162 -0.119262 -19.682730 1.193624 20.555808 3.394943 -8.994646 -3.332401 -0.016418 17.870612 -26.144248 8.018927 -11.024272 7.555845 -4.825102 -10.954532 1.070339 -2.871113 7.209491 -8.566208 -2.961819 13.442407 6.607283 8.904037 -32.495089 -1.917693 -2.037719 -14.223031 3.320910 -2.385334 11.553544 -2.197883 -0.535744 -7.694399 20.483298 40.861818 -5.785736 -44.060020 -27.894548 22.558789 4.304525 -16.365885 13.798118 0.106681 0.919248 4.081829 -0.854038 8.924164 -0.000000 0.000000 0.000000 0.000000 0.000000 0.000000 0.000000 -10.336390 -35.556047 -7.953080 24.487339 21.610180 24.991967 -5.838623 19.675426 3.217903 -2.230437 -10.107140 1.667844 -1.661075 -11.662484 -0.000000 0.000000 0.000000 0.000000 0.000000 0.000000 0.000000 
-2.774325 17.847050 0.445938 -0.051956 -0.062866 7.813988 -0.794591 20.495819 -1.424480 -17.426359 1.419819 -11.104448 0.614895 0.099622 21.607600 28.578111 -12.606426 -4.587266 -5.842146 1.873187 -10.450327 -0.101380 -19.675721 1.166214 20.581680 3.378948 -8.950951 -3.380792 -0.076275 17.957119 -26.118526 7.977852 -11.162943 7.567447 -4.830577 -10.979181 1.058611 -2.866469 7.249564 -8.559502 -2.954833 13.473947 6.592649 8.910136 -32.508385 -1.928524 -1.972480 -14.249033 3.334853 -2.319641 11.677103 -2.185608 -0.515392 -7.627092 20.431163 40.847671 -5.754402 -44.016217 -27.844050 22.558607 4.353490 -16.833423 13.793096 0.119868 0.799543 4.105668 -0.850966 8.896183 -0.000000 0.000000 0.000000 0.000000 0.000000 0.000000 0.000000 -10.291185 -35.584264 -7.984968 24.507870 21.519239 24.881674 -5.889096 19.866190 3.221925 -2.273726 -10.043683 1.696970 -1.706476 -11.647375 -0.000000 0.000000 0.000000 0.000000 0.000000 0.000000 0.000000 
-2.782050 17.843900 0.456588 -0.063080 0.014888 7.805281 -0.806827 20.503772 -1.425710 -17.387899 1.339335 -11.200510 0.664938 0.190216 21.856638 28.610915 -12.537141 -4.675833 -5.853759 1.862198 -10.528854 -0.084633 -19.671700 1.144280 20.603848 3.356327 -8.904048 -3.421567 -0.133113 18.034357 -26.088293 7.943258 -11.283722 7.584377 -4.837650 -11.015043 1.049339 -2.861820 7.280034 -8.560748 -2.946442 13.533469 6.575698 8.915722 -32.535834 -1.940863 -1.889334 -14.280863 3.354980 -2.237202 11.827349 -2.169966 -0.492662 -7.545158 20.376679 40.826710 -5.737383 -43.996002 -27.778425 22.529400 4.391675 -17.306726 13.723880 0.161452 0.699912 4.108671 -0.815746 8.869082 -0.000000 0.000000 0.000000 0.000000 0.000000 0.000000 0.000000 -10.243654 -35.626049 -8.003176 24.500046 21.422434 24.800541 -5.900466 20.128230 3.195304 -2.314627 -9.920242 1.704887 -1.749726 -11.624475 -0.000000 0.000000 0.000000 0.000000 0.000000 0.000000 0.000000 
-2.789805 17.840150 0.467230 -0.072287 0.093196 7.794245 -0.819280 20.511801 -1.421287 -17.352428 1.241474 -11.304457 0.723911 0.283012 22.123731 28.651939 -12.456570 -4.763561 -5.862344 1.850292 -10.606353 -0.067661 -19.670181 1.117459 20.625893 3.330767 -8.861075 -3.464729 -0.194394 18.128439 -26.068617 7.916082 -11.407242 7.595733 -4.842226 -11.042184 1.042152 -2.857336 7.308164 -8.562190 -2.937836 13.602108 6.556895 8.914204 -32.555931 -1.958343 -1.801453 -14.323172 3.378482 -2.150371 11.985286 -2.152835 -0.470153 -7.457440 20.322250 40.791433 -5.710846 -43.957856 -27.689425 22.504969 4.410729 -17.840580 13.602975 0.191389 0.634012 4.078544 -0.788293 8.846638 -0.000000 0.000000 0.000000 0.000000 0.000000 0.000000 0.000000 -10.195466 -35.659676 -8.009448 24.502616 21.323060 24.723321 -5.922342 20.432196 3.186253 -2.372576 -9.858128 1.729467 -1.806481 -11.606312 -0.000000 0.000000 0.000000 0.000000 0.000000 0.000000 0.000000 
-2.797920 17.836550 0.478469 -0.087761 0.169289 7.782216 -0.831964 20.513694 -1.417920 -17.306034 1.135168 -11.416863 0.784987 0.385911 22.414366 28.672797 -12.367346 -4.851334 -5.876504 1.843147 -10.686083 -0.050523 -19.671130 1.094988 20.653920 3.307963 -8.816499 -3.508058 -0.248103 18.221992 -26.046147 7.896565 -11.521685 7.607244 -4.849274 -11.062526 1.027968 -2.839441 7.333192 -8.555864 -2.915816 13.690171 6.531827 8.915818 -32.581948 -1.974476 -1.697840 -14.365844 3.405265 -2.048561 12.134605 -2.133329 -0.442358 -7.373674 20.244435 40.774851 -5.671317 -43.921334 -27.647445 22.552663 4.461278 -18.386279 13.624481 0.184457 0.467673 4.106535 -0.808627 8.813284 -0.000000 0.000000 0.000000 0.000000 0.000000 0.000000 0.000000 -10.133902 -35.717415 -8.028256 24.512016 21.219857 24.646678 -5.945150 20.730293 3.172964 -2.437377 -9.740529 1.756243 -1.870623 -11.582254 -0.000000 0.000000 0.000000 0.000000 0.000000 0.000000 0.000000 
-2.806590 17.832950 0.490677 -0.106639 0.247072 7.767949 -0.843194 20.512174 -1.408517 -17.254568 1.019183 -11.531735 0.849800 0.491026 22.710723 28.697041 -12.268290 -4.934254 -5.888379 1.834911 -10.766849 -0.031057 -19.679856 1.067125 20.688840 3.275101 -8.768755 -3.554581 -0.306167 18.324956 -26.033479 7.879151 -11.629375 7.619876 -4.857129 -11.088423 1.008147 -2.825422 7.355617 -8.547363 -2.896647 13.766104 6.512310 8.924450 -32.606420 -1.995525 -1.580342 -14.403216 3.450288 -1.936302 12.306312 -2.109297 -0.422931 -7.277591 20.183788 40.741265 -5.627209 -43.906059 -27.579007 22.578643 4.484645 -18.971166 13.560028 0.199407 0.329782 4.098275 -0.802074 8.780504 -0.000000 0.000000 0.000000 0.000000 0.000000 0.000000 0.000000 -10.077513 -35.764583 -8.065966 24.573638 21.110333 24.520646 -6.008531 21.007991 3.195631 -2.486361 -9.570083 1.803365 -1.919710 -11.547222 -0.000000 0.000000 0.000000 0.000000 0.000000 0.000000 0.000000 
-2.815140 17.829500 0.503070 -0.123696 0.318296 7.752632 -0.860140 20.520061 -1.403698 -17.207664 0.899555 -11.660616 0.922458 0.607338 23.038544 28.722334 -12.156809 -5.003027 -5.902874 1.829810 -10.850112 -0.013999 -19.683752 1.040620 20.722658 3.245393 -8.719058 -3.600528 -0.361839 18.424288 -26.034276 7.861727 -11.727309 7.626349 -4.861347 -11.108283 0.995813 -2.810274 7.380606 -8.536763 -2.875889 13.853523 6.480787 8.922860 -32.638372 -2.022182 -1.439958 -14.457575 3.501238 -1.801075 12.511951 -2.081026 -0.395972 -7.164665 20.101911 40.704960 -5.566551 -43.845114 -27.501179 22.654850 4.499213 -19.620593 13.486270 0.218595 0.206083 4.092933 -0.793810 8.750730 -0.000000 0.000000 0.000000 0.000000 0.000000 0.000000 0.000000 -10.009094 -35.833312 -8.093577 24.599444 21.021896 24.446518 -6.021593 21.399716 3.180101 -2.550936 -9.448088 1.827809 -1.982723 -11.518002 -0.000000 0.000000 0.000000 0.000000 0.000000 0.000000 0.000000 
